<?xml version="1.0" standalone="no"?>
<!DOCTYPE svg PUBLIC "-//W3C//DTD SVG 20010904//EN"
 "http://www.w3.org/TR/2001/REC-SVG-20010904/DTD/svg10.dtd">
<svg version="1.0" xmlns="http://www.w3.org/2000/svg"
 width="2400.000000pt" height="505.000000pt" viewBox="0 0 2400.000000 505.000000"
 preserveAspectRatio="xMidYMid meet">

<g transform="translate(0.000000,505.000000) scale(0.100000,-0.100000)"
fill="#000000" stroke="none">
<path d="M11948 4981 c-56 -82 -146 -248 -187 -349 -68 -165 -89 -282 -92
-514 -1 -87 -3 -158 -6 -158 -2 0 -27 18 -56 39 -70 53 -173 100 -235 108
l-50 6 -11 -39 c-24 -85 -33 -214 -29 -396 2 -103 4 -188 3 -188 -59 19 -124
30 -170 30 -62 0 -159 -21 -198 -42 -21 -11 -21 -12 13 -21 320 -82 555 -299
793 -732 95 -173 177 -383 208 -531 l12 -60 -36 -47 c-47 -61 -61 -112 -61
-212 1 -234 186 -335 271 -147 54 118 40 275 -33 360 l-37 43 23 92 c61 251
235 602 415 838 154 201 385 358 580 395 l38 7 -29 15 c-80 42 -207 53 -308
27 -33 -9 -60 -14 -62 -12 -2 1 1 32 6 67 18 124 6 380 -23 495 l-12 50 -55
-2 c-65 -3 -171 -51 -237 -107 -22 -20 -43 -36 -46 -36 -2 0 -7 82 -11 183
-10 266 -38 383 -145 602 -48 98 -173 305 -183 305 -2 0 -24 -31 -50 -69z
m135 -200 c66 -124 113 -251 137 -372 18 -86 22 -143 23 -329 l2 -225 -31 -45
c-72 -104 -137 -270 -169 -433 -10 -48 -19 -86 -21 -84 -2 1 8 165 23 362 14
198 26 428 27 510 1 133 -2 158 -22 217 -13 37 -32 78 -42 90 l-19 23 -25 -55
c-55 -120 -64 -196 -46 -376 12 -119 50 -696 49 -739 0 -16 -11 17 -24 75 -41
176 -88 296 -162 408 l-35 52 5 248 c5 254 12 309 58 444 28 84 90 217 141
302 l42 69 22 -28 c12 -15 42 -67 67 -114z m-607 -797 c65 -31 172 -128 230
-209 137 -192 221 -503 229 -850 l5 -170 -15 100 c-35 243 -88 423 -180 610
-66 134 -99 175 -167 209 -67 34 -75 26 -61 -57 8 -49 25 -88 74 -168 124
-206 247 -487 294 -674 39 -157 36 -174 -9 -47 -60 167 -114 277 -201 407 -75
113 -173 220 -250 276 -38 28 -46 39 -57 88 -18 76 -17 366 1 454 15 77 13 76
107 31z m1151 -45 c15 -92 16 -332 3 -419 -9 -58 -14 -68 -48 -95 -197 -156
-369 -416 -466 -705 -43 -127 -46 -103 -7 51 50 201 144 416 294 678 64 111
72 131 75 188 3 34 1 63 -3 63 -4 0 -34 -14 -66 -31 -68 -37 -105 -86 -174
-232 -82 -172 -140 -383 -174 -632 -13 -98 -4 195 10 320 49 432 224 755 469
869 30 14 60 24 65 23 6 -2 15 -37 22 -78z"/>
<path d="M9755 2834 c-16 -2 -73 -9 -125 -15 -52 -6 -142 -20 -200 -31 -89
-17 -153 -20 -425 -22 -227 -2 -359 -8 -455 -20 -606 -76 -1066 -252 -2025
-774 -312 -170 -506 -287 -1000 -605 -907 -583 -1272 -776 -1781 -940 -321
-103 -516 -131 -879 -124 -312 6 -545 37 -850 113 -187 47 -403 188 -595 391
-90 94 -138 172 -183 298 -46 128 -67 158 -67 94 0 -50 20 -119 61 -206 50
-110 114 -204 207 -304 l77 -83 -70 39 c-398 220 -807 559 -968 801 -146 220
-214 409 -263 730 -7 48 -112 158 -169 177 -45 16 -45 16 -45 -7 0 -77 96
-339 199 -546 292 -583 824 -1070 1449 -1325 63 -25 135 -59 162 -76 84 -52
271 -135 410 -184 404 -140 928 -215 1505 -215 777 0 1441 154 2151 500 538
262 956 538 1772 1173 547 424 816 604 1180 786 151 76 330 152 446 191 61 20
81 22 163 16 51 -3 141 -15 200 -25 456 -80 753 -251 880 -506 58 -116 68
-159 68 -297 l0 -127 22 37 c61 100 34 312 -59 470 -42 71 -174 206 -255 261
-143 95 -388 191 -583 227 -52 10 -99 20 -103 24 -4 4 48 15 115 26 167 26
555 26 703 1 365 -64 663 -195 858 -377 126 -117 216 -288 257 -490 30 -144
24 -358 -13 -502 -102 -389 -409 -690 -856 -838 -279 -92 -500 -124 -871 -125
-301 0 -385 9 -598 65 -377 99 -629 299 -706 559 -21 71 -21 247 -1 326 40
151 154 287 310 367 177 90 337 130 530 131 191 2 347 -40 476 -127 54 -36 79
-44 79 -27 0 38 -147 130 -287 181 -113 40 -232 60 -368 60 -194 0 -341 -36
-517 -126 -121 -63 -247 -184 -297 -286 -90 -188 -76 -398 42 -608 57 -102
204 -249 313 -312 274 -160 673 -250 1114 -250 655 0 1171 188 1472 536 471
544 370 1257 -231 1643 -205 132 -512 231 -831 267 -121 14 -456 20 -545 10z
m-725 -152 c0 -5 -17 -14 -38 -20 -53 -16 -412 -195 -567 -282 -360 -204 -623
-382 -1205 -820 -353 -266 -535 -394 -755 -532 -747 -470 -1463 -760 -2165
-877 -291 -49 -381 -56 -720 -55 -265 0 -341 4 -481 22 -246 32 -628 106 -615
119 2 3 35 0 73 -6 38 -6 144 -15 237 -22 527 -34 1175 113 1883 427 404 180
717 360 1458 843 703 457 974 616 1370 803 644 305 940 389 1400 401 55 2 106
4 113 5 6 1 12 -2 12 -6z"/>
<path d="M13690 2825 c-674 -83 -1138 -389 -1296 -853 -102 -301 -52 -635 140
-921 115 -170 244 -293 424 -403 461 -280 1271 -353 1898 -173 248 72 407 158
544 295 233 234 300 526 179 778 -50 102 -176 223 -297 286 -176 90 -323 126
-517 126 -136 0 -255 -20 -368 -60 -140 -51 -287 -143 -287 -181 0 -17 25 -9
79 27 129 87 285 129 476 127 272 -1 540 -98 690 -248 120 -119 165 -232 165
-415 0 -183 -52 -303 -190 -440 -166 -165 -404 -269 -749 -327 -148 -25 -600
-25 -781 0 -735 103 -1188 425 -1327 945 -24 87 -27 116 -27 277 -1 153 3 193
21 265 47 186 133 341 250 450 195 182 493 313 858 377 148 25 536 25 703 -1
67 -11 119 -22 115 -26 -4 -4 -51 -14 -103 -24 -195 -36 -440 -132 -583 -227
-81 -55 -213 -190 -255 -261 -94 -159 -120 -370 -58 -472 l23 -39 -5 95 c-12
246 103 462 328 615 188 128 518 228 823 249 82 6 102 4 163 -16 116 -39 295
-115 446 -191 364 -182 633 -362 1180 -786 816 -635 1234 -911 1772 -1173 710
-346 1374 -500 2151 -500 577 0 1101 75 1505 215 139 49 326 132 410 184 27
17 99 51 162 76 625 256 1157 741 1449 1325 103 207 199 469 199 546 0 23 0
23 -42 8 -74 -26 -178 -146 -178 -205 0 -52 -31 -201 -61 -297 -43 -133 -116
-286 -196 -406 -161 -242 -572 -583 -968 -801 l-70 -39 67 71 c88 95 141 168
194 267 51 98 84 195 84 250 0 36 -2 39 -15 25 -9 -9 -31 -57 -50 -108 -53
-142 -93 -207 -185 -304 -192 -203 -408 -344 -595 -391 -305 -76 -538 -107
-850 -113 -381 -7 -567 21 -930 142 -226 75 -348 126 -590 245 -302 149 -565
305 -1155 687 -427 276 -601 382 -855 523 -742 413 -1240 640 -1645 749 -118
32 -363 79 -510 97 -96 12 -228 18 -456 19 -246 2 -339 7 -400 19 -183 37
-294 48 -539 51 -176 3 -284 0 -365 -10z m1630 -156 c321 -27 625 -127 1175
-387 396 -187 667 -346 1370 -803 398 -260 654 -420 835 -524 901 -518 1817
-791 2506 -746 93 7 199 16 237 22 38 6 71 9 73 6 13 -13 -369 -87 -615 -119
-140 -18 -216 -22 -481 -22 -198 -1 -358 4 -430 12 -859 99 -1670 411 -2559
987 -176 113 -322 218 -671 480 -541 406 -809 589 -1125 770 -183 106 -565
298 -627 317 -21 6 -38 14 -38 17 0 9 200 3 350 -10z"/>
</g>
</svg>
