<?xml version="1.0" standalone="no"?>
<!DOCTYPE svg PUBLIC "-//W3C//DTD SVG 20010904//EN"
 "http://www.w3.org/TR/2001/REC-SVG-20010904/DTD/svg10.dtd">
<svg version="1.0" xmlns="http://www.w3.org/2000/svg"
 width="5000.000000pt" height="775.000000pt" viewBox="0 0 5000.000000 775.000000"
 preserveAspectRatio="xMidYMid meet">

<g transform="translate(0.000000,775.000000) scale(0.100000,-0.100000)"
fill="#000000" stroke="none">
<path d="M24971 6660 c-75 -17 -121 -81 -121 -169 0 -66 89 -807 101 -838 7
-19 16 -23 53 -23 27 0 48 6 56 15 12 15 91 610 106 797 6 77 4 91 -15 132
-34 69 -104 103 -180 86z"/>
<path d="M24615 6185 c-14 -13 -25 -35 -25 -49 0 -27 143 -452 170 -507 24
-46 43 -61 72 -57 17 2 24 11 26 31 4 30 -101 488 -125 550 -25 61 -76 75
-118 32z"/>
<path d="M25313 6195 c-26 -18 -37 -56 -108 -357 -56 -241 -58 -268 -15 -268
26 0 56 30 76 77 45 108 164 480 159 501 -13 54 -69 77 -112 47z"/>
<path d="M24487 5813 c-20 -19 1 -64 78 -173 47 -66 94 -124 105 -130 21 -11
40 -6 40 11 0 10 -121 226 -152 272 -18 25 -55 36 -71 20z"/>
<path d="M25468 5803 c-24 -28 -158 -264 -158 -279 0 -19 17 -26 38 -15 15 8
155 195 186 249 4 7 5 24 2 38 -8 29 -45 33 -68 7z"/>
<path d="M24315 5334 c-14 -148 11 -317 71 -484 14 -41 68 -169 119 -285 103
-233 147 -362 170 -491 27 -153 15 -405 -21 -476 -29 -56 -50 -28 -70 93 -51
325 -228 561 -469 625 -211 57 -400 -70 -446 -298 -21 -102 33 -218 100 -218
35 0 79 46 88 93 15 73 136 149 239 150 145 2 249 -108 328 -344 101 -301 58
-615 -96 -695 -59 -31 -71 -13 -42 63 16 40 16 46 0 88 -45 117 -220 129 -294
20 -26 -37 -52 -115 -52 -154 0 -50 21 -99 61 -145 84 -96 188 -129 317 -102
180 37 343 184 460 414 92 181 131 337 139 553 17 446 -127 945 -402 1399 -59
97 -169 255 -185 265 -4 3 -12 -29 -15 -71z"/>
<path d="M25633 5337 c-342 -477 -532 -1022 -533 -1528 0 -171 16 -294 57
-424 102 -325 327 -574 557 -616 163 -29 329 71 360 218 10 44 -18 148 -50
191 -56 73 -144 93 -224 52 -71 -36 -92 -94 -64 -176 10 -29 15 -56 11 -60
-15 -15 -65 11 -108 55 -64 67 -89 142 -96 291 -8 168 34 355 114 514 34 67
109 145 163 169 123 55 303 -14 340 -130 27 -83 94 -117 137 -70 44 47 56 86
51 166 -11 179 -145 325 -312 338 -171 14 -346 -85 -465 -262 -76 -114 -123
-250 -146 -427 -7 -54 -29 -79 -49 -57 -28 30 -39 89 -43 249 -8 256 23 382
177 730 165 372 193 471 194 687 0 79 -4 147 -9 152 -7 6 -29 -16 -62 -62z"/>
<path d="M24945 5281 c-74 -33 -121 -109 -131 -211 -5 -43 3 -93 36 -235 62
-267 79 -325 101 -357 18 -25 27 -29 63 -26 38 3 43 7 63 48 13 25 38 122 57
215 19 94 42 202 51 240 38 157 -7 284 -117 330 -48 19 -74 19 -123 -4z"/>
<path d="M18262 4405 c-186 -52 -272 -247 -187 -422 90 -182 347 -213 484 -57
96 109 96 279 0 388 -74 84 -192 120 -297 91z"/>
<path d="M31617 4410 c-228 -57 -309 -336 -144 -498 59 -58 127 -86 207 -86
262 0 394 319 207 502 -71 70 -182 103 -270 82z"/>
<path d="M1150 4366 c-128 -27 -245 -119 -298 -233 -46 -101 -33 -241 31 -325
43 -56 85 -79 155 -85 123 -11 237 53 262 148 9 34 8 56 -5 115 -26 109 -11
153 65 195 21 12 1148 14 7291 17 l7266 2 17 44 c9 23 32 61 51 83 l34 40
-1012 6 c-557 4 -3890 7 -7407 6 -4919 0 -6408 -3 -6450 -13z"/>
<path d="M20097 4373 l-1418 -3 25 -43 c13 -23 30 -61 37 -84 l12 -43 1236 0
1237 0 74 -75 74 -75 -1311 0 -1311 0 -6 -34 c-4 -18 -18 -55 -31 -82 -14 -27
-25 -52 -25 -56 0 -5 646 -8 1436 -8 l1437 0 381 -373 c843 -824 813 -797 870
-797 17 1 41 6 52 13 12 7 145 127 295 268 434 405 485 449 557 481 56 25 87
18 101 -24 28 -80 105 -137 187 -138 61 0 137 42 173 97 52 78 53 158 5 241
-86 147 -307 162 -483 32 -24 -17 -205 -174 -403 -348 -483 -426 -453 -402
-494 -402 -27 0 -46 11 -91 52 -100 89 -779 743 -980 942 -199 198 -222 231
-189 264 15 15 60 17 459 17 483 0 499 -2 538 -56 22 -31 23 -77 3 -192 -9
-56 3 -103 38 -143 43 -48 97 -74 173 -81 109 -10 193 38 239 137 30 65 30
225 0 291 -46 100 -151 170 -304 205 -89 20 -334 22 -2593 17z"/>
<path d="M27425 4371 c-204 -24 -328 -88 -390 -203 -24 -44 -30 -68 -33 -138
-2 -47 1 -104 7 -127 17 -61 70 -134 115 -157 89 -45 229 -25 297 43 52 51 67
106 49 179 -28 116 -14 173 53 209 29 16 70 18 484 18 409 0 454 -2 469 -17
42 -42 13 -72 -671 -729 -526 -505 -539 -517 -569 -525 -46 -11 -74 5 -179
100 -220 200 -715 629 -764 662 -81 54 -127 67 -228 68 -73 0 -97 -4 -130 -21
-188 -100 -175 -368 21 -423 97 -28 184 12 229 105 61 125 102 99 629 -395
343 -321 342 -320 379 -320 19 0 52 12 78 28 24 16 230 211 458 433 228 222
485 473 572 557 l157 152 1436 0 c790 0 1436 2 1436 5 0 3 -10 25 -22 48 -12
23 -27 60 -33 82 l-12 40 -1309 3 -1308 2 74 75 74 75 1238 0 c1205 0 1238 1
1238 19 0 10 15 48 33 85 l34 66 -1166 0 c-641 0 -1506 2 -1921 4 -415 3 -786
1 -825 -3z"/>
<path d="M34677 4373 l-678 -3 30 -38 c17 -20 39 -58 51 -84 l21 -48 7267 -2
c6932 -3 7268 -4 7299 -21 67 -36 81 -93 53 -209 -18 -73 -3 -128 49 -179 68
-68 208 -88 297 -43 45 23 98 96 115 157 17 65 8 184 -19 239 -55 112 -180
204 -311 228 -47 9 -12010 11 -14174 3z"/>
<path d="M16494 4328 c20 -22 43 -61 52 -85 l17 -43 168 0 c145 0 169 2 169
15 0 17 39 95 66 133 l16 22 -262 0 -262 0 36 -42z"/>
<path d="M17518 4348 c22 -25 72 -119 72 -137 0 -8 48 -11 166 -9 l167 3 12
42 c7 24 22 59 34 78 11 20 21 38 21 41 0 2 -111 4 -247 4 l-246 0 21 -22z"/>
<path d="M32057 4304 c18 -37 33 -75 33 -85 0 -18 10 -19 168 -19 l167 0 18
50 c10 27 29 62 42 78 14 17 25 33 25 36 0 3 -109 6 -243 6 l-244 0 34 -66z"/>
<path d="M33065 4325 c19 -25 40 -64 46 -85 l12 -40 168 0 167 0 7 29 c7 31
56 107 83 129 13 10 -36 12 -251 12 l-267 0 35 -45z"/>
<path d="M17162 4337 c-49 -18 -99 -63 -124 -110 -31 -58 -31 -156 0 -214 83
-158 308 -166 400 -13 69 115 30 261 -87 322 -59 31 -129 36 -189 15z"/>
<path d="M32673 4326 c-121 -57 -166 -205 -98 -322 106 -180 381 -137 424 67
41 189 -149 337 -326 255z"/>
<path d="M16155 4306 c-71 -31 -115 -102 -115 -186 0 -121 85 -203 208 -202
155 1 249 175 166 308 -38 63 -97 94 -173 94 -31 -1 -69 -7 -86 -14z"/>
<path d="M33678 4300 c-79 -43 -122 -142 -99 -227 25 -96 99 -155 195 -155 61
0 91 11 135 48 98 82 92 236 -12 318 -34 27 -48 31 -110 33 -57 3 -80 -1 -109
-17z"/>
<path d="M1770 3960 l0 -90 7120 0 c3916 0 7120 2 7120 5 0 3 -16 25 -35 50
-19 25 -40 64 -46 85 l-12 40 -7074 0 -7073 0 0 -90z"/>
<path d="M16551 4010 c-6 -21 -27 -60 -46 -85 -19 -25 -35 -47 -35 -50 0 -3
115 -5 256 -5 l256 0 -16 23 c-18 24 -61 111 -70 140 -5 15 -22 17 -169 17
l-164 0 -12 -40z"/>
<path d="M17581 4005 c-7 -25 -26 -63 -42 -85 -16 -22 -29 -42 -29 -45 0 -3
108 -5 240 -5 132 0 240 2 240 4 0 2 -11 23 -24 47 -13 24 -29 63 -36 87 l-11
42 -162 0 -163 0 -13 -45z"/>
<path d="M32097 4044 c-4 -4 -7 -14 -7 -23 0 -9 -14 -45 -30 -80 -17 -35 -29
-66 -27 -68 2 -2 111 -2 241 -1 l238 3 -23 29 c-12 15 -32 53 -45 85 l-23 56
-159 3 c-87 1 -161 -1 -165 -4z"/>
<path d="M33116 4016 c-4 -19 -22 -58 -41 -87 -19 -28 -35 -53 -35 -55 0 -2
115 -4 256 -4 l256 0 -36 49 c-20 27 -42 67 -50 88 l-13 38 -165 3 -166 2 -6
-34z"/>
<path d="M34090 4015 c-7 -20 -27 -58 -46 -86 -19 -28 -34 -53 -34 -55 0 -2
3204 -4 7120 -4 l7120 0 0 90 0 90 -7074 0 -7074 0 -12 -35z"/>
<path d="M24972 3083 c-27 -11 -55 -93 -108 -321 -62 -262 -66 -324 -28 -397
66 -127 254 -140 331 -24 39 60 42 141 10 284 -14 61 -38 171 -52 245 -29 142
-35 161 -68 198 -19 21 -55 27 -85 15z"/>
<path d="M24505 2729 c-119 -93 -140 -113 -140 -137 0 -24 4 -27 37 -30 35 -3
43 3 163 120 95 93 124 128 119 141 -3 9 -14 17 -23 16 -9 0 -79 -50 -156
-110z"/>
<path d="M25334 2826 c-8 -22 0 -32 129 -155 111 -106 120 -112 155 -109 33 3
37 6 37 30 0 22 -22 44 -143 137 -79 61 -150 111 -158 111 -8 0 -17 -6 -20
-14z"/>
<path d="M24648 2632 c-15 -9 -81 -66 -147 -126 -86 -76 -121 -114 -121 -130
0 -29 18 -46 51 -46 37 0 282 258 277 292 -4 29 -26 33 -60 10z"/>
<path d="M25310 2636 c-16 -21 -11 -28 128 -175 100 -106 129 -131 151 -131
15 0 32 5 39 12 29 29 12 54 -104 158 -173 155 -189 165 -214 136z"/>
<path d="M24536 2268 c-137 -143 -150 -160 -141 -188 8 -25 38 -42 61 -33 24
9 254 302 254 324 0 14 -7 19 -27 19 -23 0 -51 -23 -147 -122z"/>
<path d="M25310 2371 c0 -21 207 -290 241 -315 33 -22 63 -6 67 35 2 31 -8 45
-126 167 -102 105 -134 132 -155 132 -20 0 -27 -5 -27 -19z"/>
<path d="M24687 2158 c-127 -171 -217 -304 -217 -323 0 -28 24 -55 49 -55 10
0 27 10 38 23 22 24 178 292 193 332 22 58 -24 75 -63 23z"/>
<path d="M25265 2171 c-7 -23 14 -67 110 -232 72 -124 100 -159 125 -159 25 0
53 36 48 62 -2 13 -58 96 -123 186 -117 161 -146 187 -160 143z"/>
<path d="M24795 2016 c-24 -37 -205 -516 -205 -543 0 -31 42 -73 72 -73 32 1
55 21 72 61 32 77 147 521 140 542 -13 43 -55 50 -79 13z"/>
<path d="M25150 2021 c-5 -11 -10 -27 -10 -37 0 -29 141 -528 156 -551 18 -29
49 -37 83 -23 26 10 51 46 51 70 0 27 -202 537 -217 548 -25 18 -51 15 -63 -7z"/>
<path d="M24960 1975 c-15 -18 -109 -754 -110 -850 0 -108 62 -175 161 -175
81 0 148 63 156 147 6 59 -85 816 -103 861 -12 28 -17 32 -52 32 -23 0 -45 -6
-52 -15z"/>
</g>
</svg>
